<svg id="Layer_1" data-name="Layer 1" xmlns="http://www.w3.org/2000/svg" width="512" height="512" viewBox="0 0 512 512">
  <defs>
    <style>
      .cls-1 {
        fill: #bfcbea;
      }

      .cls-2 {
        fill: #0f0053;
      }
    </style>
  </defs>
  <title>fav3</title>
  <path class="cls-1" d="M10.43,185.17C9,151.6,14.8,119.62,33,90.63,68.53,33.8,129.63,13.28,194.07,36.7c13.28,4.83,26.3,10.41,38.35,17.68,15.09,9.1,29.69,9,45.23,1.59,17-8,34-16,52-21.62C388,16.3,438.57,34,472.52,84.85c25.19,37.69,33.72,79.88,27.55,123.91-10.76,76.8-36.77,148.7-76.5,215.43-9.22,15.48-20.26,29.64-34.41,41.06-27.25,22-57.87,23.75-87.48,5.12C293.18,465,285.63,458.48,278,452c-6.26-5.34-12.73-10.43-19.16-15.56-6-4.78-11.15-3.76-16,2-6.25,7.41-12.39,15-19.24,21.82-31.75,31.64-67,32.95-101.29,4.05-16.63-14-29.7-31-40.7-49.58C47.76,357.56,22.72,297.05,12.91,230.89c-1-6.69-2.05-13.41-2.38-20.14C10.12,202.24,10.43,193.7,10.43,185.17Z"/>
  <path class="cls-1" d="M51.76,186.42c.13-22.7,2.4-44.72,12.89-65.28C87,77.35,129.2,59.88,175.7,75.46A227.43,227.43,0,0,1,215,93.24c24.95,14,50.17,14.39,76.18,3.25,17.51-7.5,34.41-16.4,52.81-21.9,38-11.35,68-1.44,91.06,31,21.24,29.85,27.95,63.79,22.7,99.08A539.7,539.7,0,0,1,387.34,401.8c-6.6,11.15-14.4,21.53-24.51,29.88-13.31,11-24.24,11.86-38.59,2.35-6.59-4.36-12.53-9.71-18.69-14.71-3.88-3.15-7.55-6.55-11.42-9.71C259.05,381,232.05,383.75,203.55,419c-5.57,6.89-11.54,13.31-18.81,18.49-8.69,6.19-17.39,6.29-26.29.63a86.05,86.05,0,0,1-24.39-22.76C85.5,346.62,56.17,271,51.76,186.42Z"/>
  <path class="cls-2" d="M261.52,295.93c-49.62-.43-91-13.43-127.32-41.21-9.63-7.35-12.63-18-8.62-28.13,3.87-9.81,14.51-16.45,25.2-15.94,5,.23,8.88,2.57,12.78,5.33C225,259.37,291.38,259.25,353,215.7c11.95-8.44,25.29-6.88,33.64,3.93s6.5,24.51-4.73,33.67c-28.35,23.13-61.15,35.87-97.18,40.67C275.7,295.17,266.57,295.52,261.52,295.93Z"/>
</svg>
